<svg width="16" height="14" viewBox="0 0 16 14" fill="none" xmlns="http://www.w3.org/2000/svg">
<path d="M1.58337 7.91668L12.455 7.91668L9.12754 11.9133C8.80353 12.3032 8.85689 12.8818 9.24671 13.2058C9.63653 13.5299 10.2152 13.4765 10.5392 13.0867L15.1225 7.58668C15.1534 7.54293 15.181 7.49697 15.205 7.44918C15.205 7.40335 15.205 7.37584 15.2692 7.33001C15.3108 7.22491 15.3325 7.11303 15.3334 7.00001C15.3325 6.887 15.3108 6.77512 15.2692 6.67001C15.2692 6.62418 15.2692 6.59668 15.205 6.55085C15.181 6.50305 15.1534 6.45709 15.1225 6.41334L10.5392 0.913345C10.3647 0.70385 10.106 0.582902 9.83337 0.583345C9.61919 0.582927 9.41163 0.657521 9.24671 0.794179C9.05924 0.949598 8.94132 1.17322 8.91896 1.4157C8.89661 1.65819 8.97165 1.8996 9.12754 2.08668L12.455 6.08334L1.58337 6.08334C1.07711 6.08334 0.666707 6.49375 0.666707 7.00001C0.666707 7.50627 1.07711 7.91668 1.58337 7.91668Z" fill="#FEFEFE"/>
</svg>
