<svg width="44" height="22" viewBox="0 0 44 22" fill="none" xmlns="http://www.w3.org/2000/svg">
<path d="M9.71667 21.0834C6.96667 21.0834 4.65972 20.0827 2.79583 18.0813C0.931944 16.0799 0 13.6889 0 10.9084C0 8.15835 0.939583 5.80558 2.81875 3.85002C4.69792 1.89447 6.99722 0.916687 9.71667 0.916687C10.8167 0.916687 11.8785 1.10002 12.9021 1.46669C13.9257 1.83335 14.8347 2.39863 15.6292 3.16252L19.8917 7.28752L17.9667 9.21252L13.8875 5.22502C13.3375 4.67502 12.7035 4.2778 11.9854 4.03335C11.2674 3.78891 10.5111 3.66669 9.71667 3.66669C7.76111 3.66669 6.11111 4.3771 4.76667 5.79794C3.42222 7.21877 2.75 8.92224 2.75 10.9084C2.75 12.925 3.41458 14.6667 4.74375 16.1334C6.07292 17.6 7.73056 18.3334 9.71667 18.3334C10.4806 18.3334 11.2215 18.2111 11.9396 17.9667C12.6576 17.7222 13.3069 17.3403 13.8875 16.8209L28.3708 3.16252C29.1653 2.39863 30.0743 1.83335 31.0979 1.46669C32.1215 1.10002 33.1681 0.916687 34.2375 0.916687C36.9875 0.916687 39.3021 1.89447 41.1813 3.85002C43.0604 5.80558 44 8.15835 44 10.9084C44 13.6889 43.0604 16.0799 41.1813 18.0813C39.3021 20.0827 36.9875 21.0834 34.2375 21.0834C33.1681 21.0834 32.1139 20.9077 31.075 20.5563C30.0361 20.2049 29.1347 19.6472 28.3708 18.8834L24.2 14.7584L26.125 12.8334L30.1125 16.8209C30.6319 17.3403 31.2583 17.7222 31.9917 17.9667C32.725 18.2111 33.4736 18.3334 34.2375 18.3334C36.2236 18.3334 37.8889 17.6 39.2333 16.1334C40.5778 14.6667 41.25 12.925 41.25 10.9084C41.25 8.92224 40.5701 7.21877 39.2104 5.79794C37.8507 4.3771 36.1931 3.66669 34.2375 3.66669C33.4736 3.66669 32.7326 3.80419 32.0146 4.07919C31.2965 4.35419 30.6625 4.75141 30.1125 5.27085L15.6292 18.9292C14.8347 19.6625 13.9181 20.2049 12.8792 20.5563C11.8403 20.9077 10.7861 21.0834 9.71667 21.0834Z" fill="black"/>
</svg>
