<svg width="21" height="22" viewBox="0 0 21 22" fill="none" xmlns="http://www.w3.org/2000/svg">
<path d="M16.5 13C15.9021 15.0801 14.1417 16.6175 12 16.93C10.3431 17.1704 8.6599 16.7249 7.33887 15.6963C6.01784 14.6678 5.17322 13.1452 5.00001 11.48C4.86575 9.80729 5.43811 8.15481 6.57821 6.9235C7.7183 5.6922 9.32194 4.9946 11 4.99998C11.7778 5.00107 12.5482 5.15041 13.27 5.43998C13.5056 5.54573 13.7829 5.45473 13.91 5.22998L15.35 2.57998C15.4126 2.4567 15.4235 2.31357 15.3804 2.18221C15.3372 2.05086 15.2435 1.9421 15.12 1.87998C11.9765 0.45674 8.32132 0.75474 5.44986 2.66837C2.57839 4.582 0.896415 7.84084 1.00001 11.29C1.20423 16.5122 5.35132 20.7199 10.57 21C16.0612 21.2435 20.7196 17.0094 21 11.52V9.51998C20.9947 9.24607 20.7739 9.0253 20.5 9.01998H11.5C11.2239 9.01998 11 9.24384 11 9.51998V12.52C11 12.7961 11.2239 13.02 11.5 13.02H16.5" fill="#7A5AF8"/>
</svg>
