<svg width="44" height="44" viewBox="0 0 44 44" fill="none" xmlns="http://www.w3.org/2000/svg">
<path d="M16.9124 38.5V32.6792H13.6583C12.8944 32.6792 12.2451 32.4118 11.7104 31.8771C11.1756 31.3424 10.9083 30.6931 10.9083 29.9292V24.8417H9.07494C8.46383 24.8417 8.0055 24.5514 7.69994 23.9708C7.39439 23.3903 7.40967 22.7944 7.74578 22.1833L10.9083 16.5C11.6416 13.3528 13.1923 10.7326 15.5604 8.63958C17.9284 6.54653 20.6861 5.5 23.8333 5.5C27.4083 5.5 30.4409 6.74514 32.9312 9.23542C35.4215 11.7257 36.6666 14.7583 36.6666 18.3333C36.6666 20.9 35.9104 23.1993 34.3979 25.2313C32.8854 27.2632 30.968 28.8444 28.6458 29.975V38.5H16.9124ZM22.4124 25.025H25.1624L25.2999 23.0083C25.6666 22.9472 26.0104 22.8174 26.3312 22.6187C26.652 22.4201 26.9347 22.1986 27.1791 21.9542L29.1041 22.5958L30.3874 20.3958L29.0124 19.2958C29.1652 18.8681 29.2416 18.425 29.2416 17.9667C29.2416 17.5083 29.1652 17.0653 29.0124 16.6375L30.3874 15.5375L29.1041 13.3375L27.1791 13.9792C26.9347 13.7347 26.6444 13.5208 26.3083 13.3375C25.9722 13.1542 25.6361 13.0167 25.2999 12.925L25.1624 10.9083H22.4124L22.2749 12.925C21.9388 13.0167 21.6027 13.1542 21.2666 13.3375C20.9305 13.5208 20.6402 13.7347 20.3958 13.9792L18.4708 13.3375L17.1874 15.5375L18.5624 16.6375C18.4097 17.0653 18.3333 17.5083 18.3333 17.9667C18.3333 18.425 18.4097 18.8681 18.5624 19.2958L17.1874 20.3958L18.4708 22.5958L20.3958 21.9542C20.6402 22.1986 20.9229 22.4201 21.2437 22.6187C21.5645 22.8174 21.9083 22.9472 22.2749 23.0083L22.4124 25.025ZM23.7874 21.175C22.9013 21.175 22.1451 20.8618 21.5187 20.2354C20.8923 19.609 20.5791 18.8528 20.5791 17.9667C20.5791 17.0806 20.8923 16.3243 21.5187 15.6979C22.1451 15.0715 22.9013 14.7583 23.7874 14.7583C24.6736 14.7583 25.4298 15.0715 26.0562 15.6979C26.6826 16.3243 26.9958 17.0806 26.9958 17.9667C26.9958 18.8528 26.6826 19.609 26.0562 20.2354C25.4298 20.8618 24.6736 21.175 23.7874 21.175ZM19.6624 35.75H25.8958V28.1875L27.1791 27.5917C29.1041 26.7056 30.7083 25.4604 31.9916 23.8563C33.2749 22.2521 33.9166 20.4111 33.9166 18.3333C33.9166 15.5222 32.9388 13.1389 30.9833 11.1833C29.0277 9.22778 26.6444 8.25 23.8333 8.25C21.2055 8.25 18.9138 9.075 16.9583 10.725C15.0027 12.375 13.9486 14.4833 13.7958 17.05L10.9999 22.0917H13.6583V29.9292H19.6624V35.75Z" fill="black"/>
</svg>
