<svg width="24" height="24" viewBox="0 0 24 24" fill="none" xmlns="http://www.w3.org/2000/svg">
<rect opacity="0.01" x="24" y="24" width="24" height="24" transform="rotate(180 24 24)" fill="#7A5AF8"/>
<path d="M15.15 8.40006C13.6021 8.39475 12.1156 9.00526 11.0182 10.097C9.92084 11.1888 9.30269 12.6721 9.30005 14.2201V20.1001C9.30005 20.3388 9.39487 20.5677 9.56365 20.7365C9.73244 20.9052 9.96135 21.0001 10.2 21.0001H12.3C12.7971 21.0001 13.2 20.5971 13.2 20.1001V14.2201C13.1997 13.6687 13.4338 13.1433 13.8441 12.775C14.2544 12.4067 14.802 12.2304 15.35 12.2901C16.356 12.4168 17.108 13.2762 17.1 14.2901V20.1001C17.1 20.5971 17.503 21.0001 18 21.0001H20.1C20.5971 21.0001 21 20.5971 21 20.1001V14.2201C20.9974 12.6721 20.3793 11.1888 19.2819 10.097C18.1845 9.00526 16.698 8.39475 15.15 8.40006V8.40006Z" fill="#7A5AF8"/>
<rect x="3" y="9.30005" width="4.5" height="11.7" rx="0.9" fill="#7A5AF8"/>
<circle cx="5.25" cy="5.25" r="2.25" fill="#7A5AF8"/>
</svg>
