<svg width="44" height="44" viewBox="0 0 44 44" fill="none" xmlns="http://www.w3.org/2000/svg">
<path d="M22.0001 40.3334C19.4334 40.3334 17.0348 39.8521 14.8042 38.8896C12.5737 37.9271 10.6334 36.6209 8.98342 34.9709C7.33342 33.3209 6.0348 31.3729 5.08758 29.1271C4.14036 26.8813 3.66675 24.475 3.66675 21.9084C3.66675 19.3417 4.14036 16.9507 5.08758 14.7354C6.0348 12.5202 7.33342 10.5875 8.98342 8.93752C10.6334 7.28752 12.5737 5.99655 14.8042 5.0646C17.0348 4.13266 19.4334 3.66669 22.0001 3.66669C24.5667 3.66669 26.9654 4.13266 29.1959 5.0646C31.4265 5.99655 33.3667 7.28752 35.0168 8.93752C36.6667 10.5875 37.9654 12.5202 38.9126 14.7354C39.8598 16.9507 40.3334 19.3417 40.3334 21.9084C40.3334 24.475 39.8598 26.8813 38.9126 29.1271C37.9654 31.3729 36.6667 33.3209 35.0168 34.9709C33.3667 36.6209 31.4265 37.9271 29.1959 38.8896C26.9654 39.8521 24.5667 40.3334 22.0001 40.3334ZM22.0001 37.675C23.0695 36.575 23.9633 35.3146 24.6813 33.8938C25.3994 32.4729 25.9876 30.7847 26.4459 28.8292H17.6001C18.0279 30.6625 18.6008 32.3125 19.3188 33.7792C20.0369 35.2459 20.9306 36.5445 22.0001 37.675ZM18.1042 37.125C17.3404 35.9639 16.6834 34.7111 16.1334 33.3667C15.5834 32.0222 15.1251 30.5097 14.7584 28.8292H7.88342C9.04453 30.9986 10.389 32.7021 11.9167 33.9396C13.4445 35.1771 15.507 36.2389 18.1042 37.125ZM25.9417 37.0792C28.1417 36.3764 30.1202 35.3222 31.8772 33.9167C33.6341 32.5111 35.0473 30.8153 36.1167 28.8292H29.2876C28.8904 30.4792 28.4244 31.9764 27.8897 33.3209C27.3549 34.6653 26.7056 35.9181 25.9417 37.0792ZM6.96675 26.0792H14.2542C14.1626 25.2542 14.1091 24.5132 14.0938 23.8563C14.0786 23.1993 14.0709 22.55 14.0709 21.9084C14.0709 21.1445 14.0862 20.4646 14.1167 19.8688C14.1473 19.2729 14.2084 18.6084 14.3001 17.875H6.96675C6.75286 18.6084 6.60772 19.2653 6.53133 19.8459C6.45494 20.4264 6.41675 21.1139 6.41675 21.9084C6.41675 22.7028 6.45494 23.4132 6.53133 24.0396C6.60772 24.666 6.75286 25.3459 6.96675 26.0792ZM17.0959 26.0792H26.9501C27.0723 25.132 27.1487 24.3604 27.1792 23.7646C27.2098 23.1688 27.2251 22.55 27.2251 21.9084C27.2251 21.2972 27.2098 20.709 27.1792 20.1438C27.1487 19.5785 27.0723 18.8222 26.9501 17.875H17.0959C16.9737 18.8222 16.8973 19.5785 16.8667 20.1438C16.8362 20.709 16.8209 21.2972 16.8209 21.9084C16.8209 22.55 16.8362 23.1688 16.8667 23.7646C16.8973 24.3604 16.9737 25.132 17.0959 26.0792ZM29.7001 26.0792H37.0334C37.2473 25.3459 37.3924 24.666 37.4688 24.0396C37.5452 23.4132 37.5834 22.7028 37.5834 21.9084C37.5834 21.1139 37.5452 20.4264 37.4688 19.8459C37.3924 19.2653 37.2473 18.6084 37.0334 17.875H29.7459C29.8376 18.9445 29.8987 19.7618 29.9293 20.3271C29.9598 20.8924 29.9751 21.4195 29.9751 21.9084C29.9751 22.5806 29.9522 23.2146 29.9063 23.8104C29.8605 24.4063 29.7917 25.1625 29.7001 26.0792ZM29.2417 15.125H36.1167C35.1084 13.0167 33.7258 11.2597 31.9688 9.85419C30.2119 8.44863 28.1876 7.45558 25.8959 6.87502C26.6598 8.00558 27.3091 9.2278 27.8438 10.5417C28.3786 11.8556 28.8445 13.3834 29.2417 15.125ZM17.6001 15.125H26.4917C26.1556 13.5056 25.5904 11.9396 24.7959 10.4271C24.0015 8.9146 23.0695 7.5778 22.0001 6.41669C21.0223 7.24169 20.1973 8.32641 19.5251 9.67085C18.8529 11.0153 18.2112 12.8334 17.6001 15.125ZM7.88342 15.125H14.8042C15.1404 13.475 15.5681 12.0007 16.0876 10.7021C16.607 9.40349 17.264 8.14308 18.0584 6.92085C15.7667 7.50141 13.7654 8.47919 12.0542 9.85419C10.3431 11.2292 8.95286 12.9861 7.88342 15.125Z" fill="black"/>
</svg>
