<svg width="10" height="11" viewBox="0 0 10 11" fill="none" xmlns="http://www.w3.org/2000/svg">
<path d="M7.78002 10.5001C7.70005 10.5004 7.62118 10.4816 7.55002 10.4451L5.00002 9.1101L2.45002 10.4451C2.28108 10.5339 2.07631 10.5188 1.92223 10.4062C1.76815 10.2936 1.69163 10.103 1.72502 9.9151L2.22502 7.1001L0.165016 5.1001C0.0340444 4.9694 -0.0140416 4.77706 0.0400162 4.6001C0.0991383 4.41881 0.256228 4.28694 0.445016 4.2601L3.29502 3.8451L4.55002 1.2801C4.63356 1.10761 4.80835 0.998047 5.00002 0.998047C5.19168 0.998047 5.36647 1.10761 5.45002 1.2801L6.72002 3.8401L9.57002 4.2551C9.7588 4.28194 9.91589 4.41381 9.97502 4.5951C10.0291 4.77206 9.98099 4.9644 9.85002 5.0951L7.79002 7.0951L8.29002 9.9101C8.32646 10.1015 8.24841 10.2966 8.09002 10.4101C7.99948 10.4736 7.89046 10.5052 7.78002 10.5001V10.5001Z" fill="#FEFEFE"/>
</svg>
