<svg width="1400" height="597" viewBox="0 0 1400 597" fill="none" xmlns="http://www.w3.org/2000/svg">
<path fill-rule="evenodd" clip-rule="evenodd" d="M-1 103.667L115.75 132.463C232.5 161.259 466 218.852 699.5 201.574C933 184.296 1166.5 92.1481 1283.25 46.0741L1400 0V311H1283.25C1166.5 311 933 311 699.5 311C466 311 232.5 311 115.75 311H-1V103.667Z" fill="#5925DC"/>
<path fill-rule="evenodd" clip-rule="evenodd" d="M0 597L58.4167 567C116.833 537 233.667 477 350.5 453C467.333 429 584.167 441 701 453C817.833 465 934.667 477 1051.5 465C1168.33 453 1285.17 417 1343.58 399L1402 381V309H1343.58C1285.17 309 1168.33 309 1051.5 309C934.667 309 817.833 309 701 309C584.167 309 467.333 309 350.5 309C233.667 309 116.833 309 58.4167 309H0V597Z" fill="#5925DC"/>
</svg>
